# xmcd CD database file
#
# Track frame offsets:
#	150
#	14649
#	37048
#	59476
#	75830
#	96370
#	117608
#	140877
#	159734
#	175566
#	193917
#	210120
#
# Disc length: 3023 seconds
#
# Revision: 1
# Processed by: cddbd v1.5.2PL0 Copyright (c) Steve Scherf et al.
# Submitted via: CDex 1.70beta2
#
DISCID=a80bcd0c
DTITLE=Cadillac Blues Band - Lost Friend
DYEAR=1998
DGENRE=Blues
TTITLE0=Midnight Walker
TTITLE1=Lost Friend
TTITLE2=Born to Ride
TTITLE3=Two's a Company
TTITLE4=Miss You
TTITLE5=You've Been Gone
TTITLE6=Nickels and Dimes
TTITLE7=Cadillac Walk
TTITLE8=You Got to Reap What You Sow
TTITLE9=Bankers Song
TTITLE10=Count on me
TTITLE11=Get Back
EXTD=one of the best German Blues Bands YEAR: 1998
EXTT0=
EXTT1=
EXTT2=
EXTT3=
EXTT4=
EXTT5=
EXTT6=
EXTT7=
EXTT8=
EXTT9=
EXTT10=
EXTT11=
PLAYORDER=
